<svg xmlns="http://www.w3.org/2000/svg" version="1.1" viewBox="255.86 67 611.14 581">
<path d="M0 0 C38.94 0 77.88 0 118 0 C118 5.94 118 11.88 118 18 C119.69116943 17.99476318 121.38233887 17.98952637 123.12475586 17.98413086 C128.70072196 17.96803197 134.27668473 17.95652715 139.85266781 17.94818783 C143.23471813 17.94296025 146.6167434 17.93586489 149.9987793 17.92456055 C153.88329777 17.91165733 157.76780597 17.90677076 161.65234375 17.90234375 C162.87211411 17.89718246 164.09188446 17.89202118 165.34861755 17.88670349 C167.03024742 17.88659019 167.03024742 17.88659019 168.74584961 17.88647461 C169.73846298 17.884254 170.73107635 17.88203339 171.75376892 17.87974548 C174 18 174 18 175 19 C175.08631874 20.34267413 175.10706473 21.68974322 175.09765625 23.03515625 C175.09443359 23.84404297 175.09121094 24.65292969 175.08789062 25.48632812 C175.07951172 26.33646484 175.07113281 27.18660156 175.0625 28.0625 C175.05798828 28.91650391 175.05347656 29.77050781 175.04882812 30.65039062 C175.03700373 32.76695663 175.01906769 34.88348685 175 37 C176.11560303 36.99476318 177.23120605 36.98952637 178.38061523 36.98413086 C182.50479333 36.96608225 186.62896791 36.95456851 190.75317383 36.94506836 C192.54094021 36.94002782 194.32870245 36.93319546 196.11645508 36.92456055 C198.68051168 36.9124827 201.24451397 36.90676906 203.80859375 36.90234375 C204.6127623 36.89718246 205.41693085 36.89202118 206.24546814 36.88670349 C208.16401715 36.88650785 210.08245368 36.93798017 212 37 C213 38 213 38 213.11352539 39.76586914 C213.10828857 40.51473389 213.10305176 41.26359863 213.09765625 42.03515625 C213.09443359 42.84404297 213.09121094 43.65292969 213.08789062 44.48632812 C213.07951172 45.33646484 213.07113281 46.18660156 213.0625 47.0625 C213.05798828 47.91650391 213.05347656 48.77050781 213.04882812 49.65039062 C213.03700373 51.76695663 213.01906769 53.88348685 213 56 C214.28777344 55.98839844 215.57554687 55.97679687 216.90234375 55.96484375 C218.58072772 55.9554673 220.25911326 55.94636695 221.9375 55.9375 C222.78763672 55.92912109 223.63777344 55.92074219 224.51367188 55.91210938 C225.32255859 55.90888672 226.13144531 55.90566406 226.96484375 55.90234375 C227.7137085 55.89710693 228.46257324 55.89187012 229.23413086 55.88647461 C231 56 231 56 232 57 C232.08631874 58.34267413 232.10706473 59.68974322 232.09765625 61.03515625 C232.09443359 61.84404297 232.09121094 62.65292969 232.08789062 63.48632812 C232.07951172 64.33646484 232.07113281 65.18660156 232.0625 66.0625 C232.05798828 66.91650391 232.05347656 67.77050781 232.04882812 68.65039062 C232.03700373 70.76695663 232.01906769 72.88348685 232 75 C233.11560303 74.99476318 234.23120605 74.98952637 235.38061523 74.98413086 C239.50479333 74.96608225 243.62896791 74.95456851 247.75317383 74.94506836 C249.54094021 74.94002782 251.32870245 74.93319546 253.11645508 74.92456055 C255.68051168 74.9124827 258.24451397 74.90676906 260.80859375 74.90234375 C261.6127623 74.89718246 262.41693085 74.89202118 263.24546814 74.88670349 C265.16401715 74.88650785 267.08245368 74.93798017 269 75 C270 76 270 76 270.11352539 77.76586914 C270.10828857 78.51473389 270.10305176 79.26359863 270.09765625 80.03515625 C270.09443359 80.84404297 270.09121094 81.65292969 270.08789062 82.48632812 C270.07951172 83.33646484 270.07113281 84.18660156 270.0625 85.0625 C270.05798828 85.91650391 270.05347656 86.77050781 270.04882812 87.65039062 C270.03700373 89.76695663 270.01906769 91.88348685 270 94 C271.28777344 93.98839844 272.57554687 93.97679687 273.90234375 93.96484375 C275.58072772 93.9554673 277.25911326 93.94636695 278.9375 93.9375 C280.21270508 93.92493164 280.21270508 93.92493164 281.51367188 93.91210938 C282.32255859 93.90888672 283.13144531 93.90566406 283.96484375 93.90234375 C284.7137085 93.89710693 285.46257324 93.89187012 286.23413086 93.88647461 C288 94 288 94 289 95 C289.08858646 97.73894085 289.11523479 100.4525327 289.09765625 103.19140625 C289.0962413 104.01124496 289.09482635 104.83108368 289.09336853 105.67576599 C289.08775289 108.30471382 289.07519779 110.93357773 289.0625 113.5625 C289.05748701 115.34049357 289.05292376 117.11848846 289.04882812 118.89648438 C289.03777839 123.26435545 289.02050331 127.63216348 289 132 C290.28777344 131.98839844 291.57554687 131.97679687 292.90234375 131.96484375 C294.58072772 131.9554673 296.25911326 131.94636695 297.9375 131.9375 C298.78763672 131.92912109 299.63777344 131.92074219 300.51367188 131.91210938 C301.72700195 131.90727539 301.72700195 131.90727539 302.96484375 131.90234375 C303.7137085 131.89710693 304.46257324 131.89187012 305.23413086 131.88647461 C307 132 307 132 308 133 C308.08631874 134.34267413 308.10706473 135.68974322 308.09765625 137.03515625 C308.09443359 137.84404297 308.09121094 138.65292969 308.08789062 139.48632812 C308.07951172 140.33646484 308.07113281 141.18660156 308.0625 142.0625 C308.05798828 142.91650391 308.05347656 143.77050781 308.04882812 144.65039062 C308.03700373 146.76695663 308.01906769 148.88348685 308 151 C309.28777344 150.98839844 310.57554687 150.97679687 311.90234375 150.96484375 C313.58072772 150.9554673 315.25911326 150.94636695 316.9375 150.9375 C317.78763672 150.92912109 318.63777344 150.92074219 319.51367188 150.91210938 C320.72700195 150.90727539 320.72700195 150.90727539 321.96484375 150.90234375 C322.7137085 150.89710693 323.46257324 150.89187012 324.23413086 150.88647461 C326 151 326 151 327 152 C327.08858646 154.73894085 327.11523479 157.4525327 327.09765625 160.19140625 C327.0962413 161.01124496 327.09482635 161.83108368 327.09336853 162.67576599 C327.08775289 165.30471382 327.07519779 167.93357773 327.0625 170.5625 C327.05748701 172.34049357 327.05292376 174.11848846 327.04882812 175.89648438 C327.03777839 180.26435545 327.02050331 184.63216348 327 189 C328.28777344 188.98839844 329.57554687 188.97679687 330.90234375 188.96484375 C332.58072772 188.9554673 334.25911326 188.94636695 335.9375 188.9375 C336.78763672 188.92912109 337.63777344 188.92074219 338.51367188 188.91210938 C339.72700195 188.90727539 339.72700195 188.90727539 340.96484375 188.90234375 C341.7137085 188.89710693 342.46257324 188.89187012 343.23413086 188.88647461 C345 189 345 189 346 190 C346.09365006 191.7492872 346.11744438 193.50236254 346.11352539 195.25415039 C346.11344986 196.37523697 346.11337433 197.49632355 346.11329651 198.65138245 C346.10813522 199.8711528 346.10297394 201.09092316 346.09765625 202.34765625 C346.0962413 203.58921982 346.09482635 204.83078339 346.09336853 206.10997009 C346.08870591 209.41605491 346.07971497 212.72207146 346.06866455 216.02813721 C346.05844827 219.3996115 346.05387045 222.77109283 346.04882812 226.14257812 C346.03777395 232.76174018 346.0204966 239.38086071 346 246 C351.94 246 357.88 246 364 246 C364 284.94 364 323.88 364 364 C358.06 364 352.12 364 346 364 C346.00523682 365.69116943 346.01047363 367.38233887 346.01586914 369.12475586 C346.03196803 374.70072196 346.04347285 380.27668473 346.05181217 385.85266781 C346.05703975 389.23471813 346.06413511 392.6167434 346.07543945 395.9987793 C346.08834267 399.88329777 346.09322924 403.76780597 346.09765625 407.65234375 C346.10281754 408.87211411 346.10797882 410.09188446 346.11329651 411.34861755 C346.11337204 412.46970413 346.11344757 413.59079071 346.11352539 414.74584961 C346.115746 415.73846298 346.11796661 416.73107635 346.12025452 417.75376892 C346 420 346 420 345 421 C339.06 421 333.12 421 327 421 C327 433.54 327 446.08 327 459 C320.73 459 314.46 459 308 459 C308.03957769 464.87883003 308.03957769 464.87883003 308.09008789 470.75756836 C308.09383423 471.85016968 308.09383423 471.85016968 308.09765625 472.96484375 C308.10289307 473.7137085 308.10812988 474.46257324 308.11352539 475.23413086 C308 477 308 477 307 478 C305.65732587 478.08631874 304.31025678 478.10706473 302.96484375 478.09765625 C301.75151367 478.09282227 301.75151367 478.09282227 300.51367188 478.08789062 C299.66353516 478.07951172 298.81339844 478.07113281 297.9375 478.0625 C297.08349609 478.05798828 296.22949219 478.05347656 295.34960938 478.04882812 C293.23304337 478.03700373 291.11651315 478.01906769 289 478 C289.00523682 479.11560303 289.01047363 480.23120605 289.01586914 481.38061523 C289.03391775 485.50479333 289.04543149 489.62896791 289.05493164 493.75317383 C289.05997218 495.54094021 289.06680454 497.32870245 289.07543945 499.11645508 C289.0875173 501.68051168 289.09323094 504.24451397 289.09765625 506.80859375 C289.10281754 507.6127623 289.10797882 508.41693085 289.11329651 509.24546814 C289.11349215 511.16401715 289.06201983 513.08245368 289 515 C288 516 288 516 286.23413086 516.11352539 C285.48526611 516.10828857 284.73640137 516.10305176 283.96484375 516.09765625 C283.15595703 516.09443359 282.34707031 516.09121094 281.51367188 516.08789062 C280.66353516 516.07951172 279.81339844 516.07113281 278.9375 516.0625 C278.08349609 516.05798828 277.22949219 516.05347656 276.34960938 516.04882812 C274.23304337 516.03700373 272.11651315 516.01906769 270 516 C270.01740234 517.93166016 270.01740234 517.93166016 270.03515625 519.90234375 C270.0445327 521.58072772 270.05363305 523.25911326 270.0625 524.9375 C270.07087891 525.78763672 270.07925781 526.63777344 270.08789062 527.51367188 C270.09111328 528.32255859 270.09433594 529.13144531 270.09765625 529.96484375 C270.10289307 530.7137085 270.10812988 531.46257324 270.11352539 532.23413086 C270 534 270 534 269 535 C266.26105915 535.08858646 263.5474673 535.11523479 260.80859375 535.09765625 C259.98875504 535.0962413 259.16891632 535.09482635 258.32423401 535.09336853 C255.69528618 535.08775289 253.06642227 535.07519779 250.4375 535.0625 C248.65950643 535.05748701 246.88151154 535.05292376 245.10351562 535.04882812 C240.73564455 535.03777839 236.36783652 535.02050331 232 535 C232.01740234 536.93166016 232.01740234 536.93166016 232.03515625 538.90234375 C232.0445327 540.58072772 232.05363305 542.25911326 232.0625 543.9375 C232.07087891 544.78763672 232.07925781 545.63777344 232.08789062 546.51367188 C232.09272461 547.72700195 232.09272461 547.72700195 232.09765625 548.96484375 C232.10551147 550.08814087 232.10551147 550.08814087 232.11352539 551.23413086 C232 553 232 553 231 554 C229.65732587 554.08631874 228.31025678 554.10706473 226.96484375 554.09765625 C226.23644287 554.09515869 225.50804199 554.09266113 224.75756836 554.09008789 C223.36163452 554.07643188 223.36163452 554.07643188 221.9375 554.0625 C217.5134375 554.0315625 217.5134375 554.0315625 213 554 C213 560.27 213 566.54 213 573 C201.12 573.33 189.24 573.66 177 574 C176.34 576.31 175.68 578.62 175 581 C98.44 581 21.88 581 -57 581 C-57 578.36 -57 575.72 -57 573 C-58.11560303 573.00523682 -59.23120605 573.01047363 -60.38061523 573.01586914 C-64.50479333 573.03391775 -68.62896791 573.04543149 -72.75317383 573.05493164 C-74.54094021 573.05997218 -76.32870245 573.06680454 -78.11645508 573.07543945 C-80.68051168 573.0875173 -83.24451397 573.09323094 -85.80859375 573.09765625 C-87.01484657 573.10539818 -87.01484657 573.10539818 -88.24546814 573.11329651 C-90.16401715 573.11349215 -92.08245368 573.06201983 -94 573 C-95 572 -95 572 -95.11352539 570.23413086 C-95.10828857 569.48526611 -95.10305176 568.73640137 -95.09765625 567.96484375 C-95.09443359 567.15595703 -95.09121094 566.34707031 -95.08789062 565.51367188 C-95.07951172 564.66353516 -95.07113281 563.81339844 -95.0625 562.9375 C-95.05798828 562.08349609 -95.05347656 561.22949219 -95.04882812 560.34960938 C-95.03700373 558.23304337 -95.01906769 556.11651315 -95 554 C-96.28777344 554.01160156 -97.57554687 554.02320313 -98.90234375 554.03515625 C-100.58072772 554.0445327 -102.25911326 554.05363305 -103.9375 554.0625 C-104.78763672 554.07087891 -105.63777344 554.07925781 -106.51367188 554.08789062 C-107.32255859 554.09111328 -108.13144531 554.09433594 -108.96484375 554.09765625 C-109.7137085 554.10289307 -110.46257324 554.10812988 -111.23413086 554.11352539 C-113 554 -113 554 -114 553 C-114.08631874 551.65732587 -114.10706473 550.31025678 -114.09765625 548.96484375 C-114.09443359 548.15595703 -114.09121094 547.34707031 -114.08789062 546.51367188 C-114.07951172 545.66353516 -114.07113281 544.81339844 -114.0625 543.9375 C-114.05798828 543.08349609 -114.05347656 542.22949219 -114.04882812 541.34960938 C-114.03700373 539.23304337 -114.01906769 537.11651315 -114 535 C-115.11560303 535.00523682 -116.23120605 535.01047363 -117.38061523 535.01586914 C-121.50479333 535.03391775 -125.62896791 535.04543149 -129.75317383 535.05493164 C-131.54094021 535.05997218 -133.32870245 535.06680454 -135.11645508 535.07543945 C-137.68051168 535.0875173 -140.24451397 535.09323094 -142.80859375 535.09765625 C-144.01484657 535.10539818 -144.01484657 535.10539818 -145.24546814 535.11329651 C-147.16401715 535.11349215 -149.08245368 535.06201983 -151 535 C-152 534 -152 534 -152.11352539 532.23413086 C-152.10567017 531.11083374 -152.10567017 531.11083374 -152.09765625 529.96484375 C-152.09282227 528.75151367 -152.09282227 528.75151367 -152.08789062 527.51367188 C-152.07532227 526.2384668 -152.07532227 526.2384668 -152.0625 524.9375 C-152.05798828 524.08349609 -152.05347656 523.22949219 -152.04882812 522.34960938 C-152.03700373 520.23304337 -152.01906769 518.11651315 -152 516 C-153.28777344 516.01160156 -154.57554687 516.02320313 -155.90234375 516.03515625 C-157.58072772 516.0445327 -159.25911326 516.05363305 -160.9375 516.0625 C-161.78763672 516.07087891 -162.63777344 516.07925781 -163.51367188 516.08789062 C-164.32255859 516.09111328 -165.13144531 516.09433594 -165.96484375 516.09765625 C-166.7137085 516.10289307 -167.46257324 516.10812988 -168.23413086 516.11352539 C-170 516 -170 516 -171 515 C-172.13061398 508.27205059 -172.14995708 501.62162257 -172.125 494.8125 C-172.12886719 493.74580078 -172.13273437 492.67910156 -172.13671875 491.58007812 C-172.13542969 490.54947266 -172.13414062 489.51886719 -172.1328125 488.45703125 C-172.13168457 487.52866455 -172.13055664 486.60029785 -172.12939453 485.64379883 C-172.00016526 483.00337662 -171.58628049 480.57421963 -171 478 C-172.27617187 478.02320313 -173.55234375 478.04640625 -174.8671875 478.0703125 C-176.5364525 478.08906829 -178.2057238 478.10726869 -179.875 478.125 C-180.71675781 478.14175781 -181.55851562 478.15851563 -182.42578125 478.17578125 C-183.23144531 478.18222656 -184.03710938 478.18867187 -184.8671875 478.1953125 C-185.61081543 478.20578613 -186.35444336 478.21625977 -187.12060547 478.22705078 C-189 478 -189 478 -191 476 C-191.14557157 473.08274582 -191.18598967 470.28685195 -191.125 467.375 C-191.08375 464.61125 -191.0425 461.8475 -191 459 C-196.94 459 -202.88 459 -209 459 C-209 446.46 -209 433.92 -209 421 C-214.94 421 -220.88 421 -227 421 C-228 420 -228 420 -228.12025452 417.75376892 C-228.1169236 416.26484886 -228.1169236 416.26484886 -228.11352539 414.74584961 C-228.11344986 413.62476303 -228.11337433 412.50367645 -228.11329651 411.34861755 C-228.10813522 410.1288472 -228.10297394 408.90907684 -228.09765625 407.65234375 C-228.0962413 406.41078018 -228.09482635 405.16921661 -228.09336853 403.89002991 C-228.08870591 400.58394509 -228.07971497 397.27792854 -228.06866455 393.97186279 C-228.05844827 390.6003885 -228.05387045 387.22890717 -228.04882812 383.85742188 C-228.03777395 377.23826225 -228.02101736 370.61913507 -228 364 C-229.28777344 364.01160156 -230.57554687 364.02320313 -231.90234375 364.03515625 C-233.58072772 364.0445327 -235.25911326 364.05363305 -236.9375 364.0625 C-237.78763672 364.07087891 -238.63777344 364.07925781 -239.51367188 364.08789062 C-240.72700195 364.09272461 -240.72700195 364.09272461 -241.96484375 364.09765625 C-243.08814087 364.10551147 -243.08814087 364.10551147 -244.23413086 364.11352539 C-246 364 -246 364 -247 363 C-247.09791695 361.49681296 -247.12631799 359.98903867 -247.12698364 358.48266602 C-247.13121338 357.01870895 -247.13121338 357.01870895 -247.13552856 355.525177 C-247.13350433 354.44565765 -247.1314801 353.36613831 -247.12939453 352.25390625 C-247.13114685 351.12395233 -247.13289917 349.99399841 -247.13470459 348.82980347 C-247.13912582 345.07402027 -247.13618416 341.31828372 -247.1328125 337.5625 C-247.13348546 334.96557608 -247.13445542 332.36865222 -247.13571167 329.77172852 C-247.13718901 324.32079411 -247.13512751 318.86987742 -247.13037109 313.41894531 C-247.1249285 307.10860771 -247.12669117 300.79830241 -247.1321975 294.48796558 C-247.13727431 288.428323 -247.13674709 282.36869628 -247.13381577 276.30905151 C-247.13314623 273.72533158 -247.13397585 271.14161083 -247.13629532 268.55789185 C-247.13882025 264.95393657 -247.1349835 261.3500443 -247.12939453 257.74609375 C-247.13141876 256.6665744 -247.13344299 255.58705505 -247.13552856 254.474823 C-247.13270874 253.49885162 -247.12988892 252.52288025 -247.12698364 251.51733398 C-247.12660662 250.66413071 -247.12622959 249.81092743 -247.12584114 248.93186951 C-247 247 -247 247 -246 246 C-244.65732587 245.91368126 -243.31025678 245.89293527 -241.96484375 245.90234375 C-241.15595703 245.90556641 -240.34707031 245.90878906 -239.51367188 245.91210938 C-238.66353516 245.92048828 -237.81339844 245.92886719 -236.9375 245.9375 C-236.08349609 245.94201172 -235.22949219 245.94652344 -234.34960938 245.95117188 C-232.23304337 245.96299627 -230.11651315 245.98093231 -228 246 C-228.00222061 245.30064835 -228.00444122 244.60129669 -228.00672913 243.88075256 C-228.0267328 237.30295079 -228.04197452 230.72515746 -228.05181217 224.14733219 C-228.05703975 220.76528187 -228.06413511 217.3832566 -228.07543945 214.0012207 C-228.08834267 210.11670223 -228.09322924 206.23219403 -228.09765625 202.34765625 C-228.10281754 201.12788589 -228.10797882 199.90811554 -228.11329651 198.65138245 C-228.11340981 196.96975258 -228.11340981 196.96975258 -228.11352539 195.25415039 C-228.115746 194.26153702 -228.11796661 193.26892365 -228.12025452 192.24623108 C-228 190 -228 190 -227 189 C-225.65732587 188.91368126 -224.31025678 188.89293527 -222.96484375 188.90234375 C-222.15595703 188.90556641 -221.34707031 188.90878906 -220.51367188 188.91210938 C-219.66353516 188.92048828 -218.81339844 188.92886719 -217.9375 188.9375 C-217.08349609 188.94201172 -216.22949219 188.94652344 -215.34960938 188.95117188 C-213.23304337 188.96299627 -211.11651315 188.98093231 -209 189 C-209.00523682 187.88439697 -209.01047363 186.76879395 -209.01586914 185.61938477 C-209.03391775 181.49520667 -209.04543149 177.37103209 -209.05493164 173.24682617 C-209.05997218 171.45905979 -209.06680454 169.67129755 -209.07543945 167.88354492 C-209.0875173 165.31948832 -209.09323094 162.75548603 -209.09765625 160.19140625 C-209.10281754 159.3872377 -209.10797882 158.58306915 -209.11329651 157.75453186 C-209.11349215 155.83598285 -209.06201983 153.91754632 -209 152 C-208 151 -208 151 -204.18359375 150.90234375 C-202.60153318 150.90901911 -201.01948841 150.92098125 -199.4375 150.9375 C-198.63119141 150.94201172 -197.82488281 150.94652344 -196.99414062 150.95117188 C-194.99606244 150.96299482 -192.99802217 150.98093086 -191 151 C-191.02320313 149.87980469 -191.04640625 148.75960937 -191.0703125 147.60546875 C-191.08907237 146.13281916 -191.10727234 144.66016237 -191.125 143.1875 C-191.14175781 142.44951172 -191.15851563 141.71152344 -191.17578125 140.95117188 C-191.21074628 137.08753574 -191.19397555 135.29096332 -189 132 C-187.12060547 131.65942383 -187.12060547 131.65942383 -184.8671875 131.70703125 C-184.06152344 131.71669922 -183.25585938 131.72636719 -182.42578125 131.73632812 C-181.58402344 131.76146484 -180.74226563 131.78660156 -179.875 131.8125 C-179.02550781 131.82603516 -178.17601562 131.83957031 -177.30078125 131.85351562 C-175.20025163 131.88891781 -173.10004707 131.94272599 -171 132 C-171.12568359 130.88431641 -171.12568359 130.88431641 -171.25390625 129.74609375 C-172.00745145 121.66694457 -171.97589507 113.78821709 -171.625 105.6875 C-171.58189697 104.65488037 -171.53879395 103.62226074 -171.49438477 102.55834961 C-171.13131857 95.13131857 -171.13131857 95.13131857 -170 94 C-168.65732587 93.91368126 -167.31025678 93.89293527 -165.96484375 93.90234375 C-165.15595703 93.90556641 -164.34707031 93.90878906 -163.51367188 93.91210938 C-162.66353516 93.92048828 -161.81339844 93.92886719 -160.9375 93.9375 C-160.08349609 93.94201172 -159.22949219 93.94652344 -158.34960938 93.95117188 C-156.23304337 93.96299627 -154.11651315 93.98093231 -152 94 C-152.01160156 92.71222656 -152.02320313 91.42445313 -152.03515625 90.09765625 C-152.0445327 88.41927228 -152.05363305 86.74088674 -152.0625 85.0625 C-152.07087891 84.21236328 -152.07925781 83.36222656 -152.08789062 82.48632812 C-152.09111328 81.67744141 -152.09433594 80.86855469 -152.09765625 80.03515625 C-152.10289307 79.2862915 -152.10812988 78.53742676 -152.11352539 77.76586914 C-152 76 -152 76 -151 75 C-148.26105915 74.91141354 -145.5474673 74.88476521 -142.80859375 74.90234375 C-141.98875504 74.9037587 -141.16891632 74.90517365 -140.32423401 74.90663147 C-137.69528618 74.91224711 -135.06642227 74.92480221 -132.4375 74.9375 C-130.65950643 74.94251299 -128.88151154 74.94707624 -127.10351562 74.95117188 C-122.73564455 74.96222161 -118.36783652 74.97949669 -114 75 C-114.01160156 73.71222656 -114.02320313 72.42445313 -114.03515625 71.09765625 C-114.0445327 69.41927228 -114.05363305 67.74088674 -114.0625 66.0625 C-114.07087891 65.21236328 -114.07925781 64.36222656 -114.08789062 63.48632812 C-114.09111328 62.67744141 -114.09433594 61.86855469 -114.09765625 61.03515625 C-114.10289307 60.2862915 -114.10812988 59.53742676 -114.11352539 58.76586914 C-114 57 -114 57 -113 56 C-111.65732587 55.91368126 -110.31025678 55.89293527 -108.96484375 55.90234375 C-108.15595703 55.90556641 -107.34707031 55.90878906 -106.51367188 55.91210938 C-105.2384668 55.92467773 -105.2384668 55.92467773 -103.9375 55.9375 C-103.08349609 55.94201172 -102.22949219 55.94652344 -101.34960938 55.95117188 C-99.23304337 55.96299627 -97.11651315 55.98093231 -95 56 C-95.01160156 54.71222656 -95.02320313 53.42445312 -95.03515625 52.09765625 C-95.0445327 50.41927228 -95.05363305 48.74088674 -95.0625 47.0625 C-95.07087891 46.21236328 -95.07925781 45.36222656 -95.08789062 44.48632812 C-95.09111328 43.67744141 -95.09433594 42.86855469 -95.09765625 42.03515625 C-95.10289307 41.2862915 -95.10812988 40.53742676 -95.11352539 39.76586914 C-95 38 -95 38 -94 37 C-91.26105915 36.91141354 -88.5474673 36.88476521 -85.80859375 36.90234375 C-84.98875504 36.9037587 -84.16891632 36.90517365 -83.32423401 36.90663147 C-80.69528618 36.91224711 -78.06642227 36.92480221 -75.4375 36.9375 C-73.65950643 36.94251299 -71.88151154 36.94707624 -70.10351562 36.95117188 C-65.73564455 36.96222161 -61.36783652 36.97949669 -57 37 C-57.01160156 35.71222656 -57.02320313 34.42445312 -57.03515625 33.09765625 C-57.0445327 31.41927228 -57.05363305 29.74088674 -57.0625 28.0625 C-57.07087891 27.21236328 -57.07925781 26.36222656 -57.08789062 25.48632812 C-57.09111328 24.67744141 -57.09433594 23.86855469 -57.09765625 23.03515625 C-57.10289307 22.2862915 -57.10812988 21.53742676 -57.11352539 20.76586914 C-57 19 -57 19 -56 18 C-54.2507128 17.90634994 -52.49763746 17.88255562 -50.74584961 17.88647461 C-49.62476303 17.88655014 -48.50367645 17.88662567 -47.34861755 17.88670349 C-45.51896202 17.89444542 -45.51896202 17.89444542 -43.65234375 17.90234375 C-41.7899984 17.90446617 -41.7899984 17.90446617 -39.89002991 17.90663147 C-36.58394509 17.91129409 -33.27792854 17.92028503 -29.97186279 17.93133545 C-26.6003885 17.94155173 -23.22890717 17.94612955 -19.85742188 17.95117188 C-13.23825982 17.96222605 -6.61913929 17.9795034 0 18 C0 12.06 0 6.12 0 0 Z " fill="#DBDBDB" transform="translate(503,67)"/>
<path d="M0 0 C38.94 0 77.88 0 118 0 C118 5.94 118 11.88 118 18 C119.69116943 17.99476318 121.38233887 17.98952637 123.12475586 17.98413086 C128.70072196 17.96803197 134.27668473 17.95652715 139.85266781 17.94818783 C143.23471813 17.94296025 146.6167434 17.93586489 149.9987793 17.92456055 C153.88329777 17.91165733 157.76780597 17.90677076 161.65234375 17.90234375 C162.87211411 17.89718246 164.09188446 17.89202118 165.34861755 17.88670349 C167.03024742 17.88659019 167.03024742 17.88659019 168.74584961 17.88647461 C169.73846298 17.884254 170.73107635 17.88203339 171.75376892 17.87974548 C174 18 174 18 175 19 C175.08631874 20.34267413 175.10706473 21.68974322 175.09765625 23.03515625 C175.09443359 23.84404297 175.09121094 24.65292969 175.08789062 25.48632812 C175.07951172 26.33646484 175.07113281 27.18660156 175.0625 28.0625 C175.05798828 28.91650391 175.05347656 29.77050781 175.04882812 30.65039062 C175.03700373 32.76695663 175.01906769 34.88348685 175 37 C176.11560303 36.99476318 177.23120605 36.98952637 178.38061523 36.98413086 C182.50479333 36.96608225 186.62896791 36.95456851 190.75317383 36.94506836 C192.54094021 36.94002782 194.32870245 36.93319546 196.11645508 36.92456055 C198.68051168 36.9124827 201.24451397 36.90676906 203.80859375 36.90234375 C204.6127623 36.89718246 205.41693085 36.89202118 206.24546814 36.88670349 C208.16401715 36.88650785 210.08245368 36.93798017 212 37 C213 38 213 38 213.11352539 39.76586914 C213.10828857 40.51473389 213.10305176 41.26359863 213.09765625 42.03515625 C213.09443359 42.84404297 213.09121094 43.65292969 213.08789062 44.48632812 C213.07951172 45.33646484 213.07113281 46.18660156 213.0625 47.0625 C213.05798828 47.91650391 213.05347656 48.77050781 213.04882812 49.65039062 C213.03700373 51.76695663 213.01906769 53.88348685 213 56 C214.28777344 55.98839844 215.57554687 55.97679687 216.90234375 55.96484375 C218.58072772 55.9554673 220.25911326 55.94636695 221.9375 55.9375 C222.78763672 55.92912109 223.63777344 55.92074219 224.51367188 55.91210938 C225.32255859 55.90888672 226.13144531 55.90566406 226.96484375 55.90234375 C227.7137085 55.89710693 228.46257324 55.89187012 229.23413086 55.88647461 C231 56 231 56 232 57 C232.08631874 58.34267413 232.10706473 59.68974322 232.09765625 61.03515625 C232.09443359 61.84404297 232.09121094 62.65292969 232.08789062 63.48632812 C232.07951172 64.33646484 232.07113281 65.18660156 232.0625 66.0625 C232.05798828 66.91650391 232.05347656 67.77050781 232.04882812 68.65039062 C232.03700373 70.76695663 232.01906769 72.88348685 232 75 C233.11560303 74.99476318 234.23120605 74.98952637 235.38061523 74.98413086 C239.50479333 74.96608225 243.62896791 74.95456851 247.75317383 74.94506836 C249.54094021 74.94002782 251.32870245 74.93319546 253.11645508 74.92456055 C255.68051168 74.9124827 258.24451397 74.90676906 260.80859375 74.90234375 C261.6127623 74.89718246 262.41693085 74.89202118 263.24546814 74.88670349 C265.16401715 74.88650785 267.08245368 74.93798017 269 75 C270 76 270 76 270.11352539 77.76586914 C270.10828857 78.51473389 270.10305176 79.26359863 270.09765625 80.03515625 C270.09443359 80.84404297 270.09121094 81.65292969 270.08789062 82.48632812 C270.07951172 83.33646484 270.07113281 84.18660156 270.0625 85.0625 C270.05798828 85.91650391 270.05347656 86.77050781 270.04882812 87.65039062 C270.03700373 89.76695663 270.01906769 91.88348685 270 94 C271.28777344 93.98839844 272.57554687 93.97679687 273.90234375 93.96484375 C275.58072772 93.9554673 277.25911326 93.94636695 278.9375 93.9375 C280.21270508 93.92493164 280.21270508 93.92493164 281.51367188 93.91210938 C282.32255859 93.90888672 283.13144531 93.90566406 283.96484375 93.90234375 C284.7137085 93.89710693 285.46257324 93.89187012 286.23413086 93.88647461 C288 94 288 94 289 95 C289.08858646 97.73894085 289.11523479 100.4525327 289.09765625 103.19140625 C289.0962413 104.01124496 289.09482635 104.83108368 289.09336853 105.67576599 C289.08775289 108.30471382 289.07519779 110.93357773 289.0625 113.5625 C289.05748701 115.34049357 289.05292376 117.11848846 289.04882812 118.89648438 C289.03777839 123.26435545 289.02050331 127.63216348 289 132 C290.28777344 131.98839844 291.57554687 131.97679687 292.90234375 131.96484375 C294.58072772 131.9554673 296.25911326 131.94636695 297.9375 131.9375 C298.78763672 131.92912109 299.63777344 131.92074219 300.51367188 131.91210938 C301.72700195 131.90727539 301.72700195 131.90727539 302.96484375 131.90234375 C303.7137085 131.89710693 304.46257324 131.89187012 305.23413086 131.88647461 C307 132 307 132 308 133 C308.08631874 134.34267413 308.10706473 135.68974322 308.09765625 137.03515625 C308.09443359 137.84404297 308.09121094 138.65292969 308.08789062 139.48632812 C308.07951172 140.33646484 308.07113281 141.18660156 308.0625 142.0625 C308.05798828 142.91650391 308.05347656 143.77050781 308.04882812 144.65039062 C308.03700373 146.76695663 308.01906769 148.88348685 308 151 C309.28777344 150.98839844 310.57554687 150.97679687 311.90234375 150.96484375 C313.58072772 150.9554673 315.25911326 150.94636695 316.9375 150.9375 C317.78763672 150.92912109 318.63777344 150.92074219 319.51367188 150.91210938 C320.72700195 150.90727539 320.72700195 150.90727539 321.96484375 150.90234375 C322.7137085 150.89710693 323.46257324 150.89187012 324.23413086 150.88647461 C326 151 326 151 327 152 C327.08858646 154.73894085 327.11523479 157.4525327 327.09765625 160.19140625 C327.0962413 161.01124496 327.09482635 161.83108368 327.09336853 162.67576599 C327.08775289 165.30471382 327.07519779 167.93357773 327.0625 170.5625 C327.05748701 172.34049357 327.05292376 174.11848846 327.04882812 175.89648438 C327.03777839 180.26435545 327.02050331 184.63216348 327 189 C328.28777344 188.98839844 329.57554687 188.97679687 330.90234375 188.96484375 C332.58072772 188.9554673 334.25911326 188.94636695 335.9375 188.9375 C336.78763672 188.92912109 337.63777344 188.92074219 338.51367188 188.91210938 C339.72700195 188.90727539 339.72700195 188.90727539 340.96484375 188.90234375 C341.7137085 188.89710693 342.46257324 188.89187012 343.23413086 188.88647461 C345 189 345 189 346 190 C346.09365006 191.7492872 346.11744438 193.50236254 346.11352539 195.25415039 C346.11344986 196.37523697 346.11337433 197.49632355 346.11329651 198.65138245 C346.10813522 199.8711528 346.10297394 201.09092316 346.09765625 202.34765625 C346.0962413 203.58921982 346.09482635 204.83078339 346.09336853 206.10997009 C346.08870591 209.41605491 346.07971497 212.72207146 346.06866455 216.02813721 C346.05844827 219.3996115 346.05387045 222.77109283 346.04882812 226.14257812 C346.03777395 232.76174018 346.0204966 239.38086071 346 246 C351.94 246 357.88 246 364 246 C364 284.94 364 323.88 364 364 C358.06 364 352.12 364 346 364 C346.00523682 365.69116943 346.01047363 367.38233887 346.01586914 369.12475586 C346.03196803 374.70072196 346.04347285 380.27668473 346.05181217 385.85266781 C346.05703975 389.23471813 346.06413511 392.6167434 346.07543945 395.9987793 C346.08834267 399.88329777 346.09322924 403.76780597 346.09765625 407.65234375 C346.10281754 408.87211411 346.10797882 410.09188446 346.11329651 411.34861755 C346.11337204 412.46970413 346.11344757 413.59079071 346.11352539 414.74584961 C346.115746 415.73846298 346.11796661 416.73107635 346.12025452 417.75376892 C346 420 346 420 345 421 C339.06 421 333.12 421 327 421 C327 433.54 327 446.08 327 459 C320.73 459 314.46 459 308 459 C308.03957769 464.87883003 308.03957769 464.87883003 308.09008789 470.75756836 C308.09383423 471.85016968 308.09383423 471.85016968 308.09765625 472.96484375 C308.10289307 473.7137085 308.10812988 474.46257324 308.11352539 475.23413086 C308 477 308 477 307 478 C305.65732587 478.08631874 304.31025678 478.10706473 302.96484375 478.09765625 C301.75151367 478.09282227 301.75151367 478.09282227 300.51367188 478.08789062 C299.66353516 478.07951172 298.81339844 478.07113281 297.9375 478.0625 C297.08349609 478.05798828 296.22949219 478.05347656 295.34960938 478.04882812 C293.23304337 478.03700373 291.11651315 478.01906769 289 478 C289.00523682 479.11560303 289.01047363 480.23120605 289.01586914 481.38061523 C289.03391775 485.50479333 289.04543149 489.62896791 289.05493164 493.75317383 C289.05997218 495.54094021 289.06680454 497.32870245 289.07543945 499.11645508 C289.0875173 501.68051168 289.09323094 504.24451397 289.09765625 506.80859375 C289.10281754 507.6127623 289.10797882 508.41693085 289.11329651 509.24546814 C289.11349215 511.16401715 289.06201983 513.08245368 289 515 C288 516 288 516 286.23413086 516.11352539 C285.48526611 516.10828857 284.73640137 516.10305176 283.96484375 516.09765625 C283.15595703 516.09443359 282.34707031 516.09121094 281.51367188 516.08789062 C280.66353516 516.07951172 279.81339844 516.07113281 278.9375 516.0625 C278.08349609 516.05798828 277.22949219 516.05347656 276.34960938 516.04882812 C274.23304337 516.03700373 272.11651315 516.01906769 270 516 C270.01740234 517.93166016 270.01740234 517.93166016 270.03515625 519.90234375 C270.0445327 521.58072772 270.05363305 523.25911326 270.0625 524.9375 C270.07087891 525.78763672 270.07925781 526.63777344 270.08789062 527.51367188 C270.09111328 528.32255859 270.09433594 529.13144531 270.09765625 529.96484375 C270.10289307 530.7137085 270.10812988 531.46257324 270.11352539 532.23413086 C270 534 270 534 269 535 C266.26105915 535.08858646 263.5474673 535.11523479 260.80859375 535.09765625 C259.98875504 535.0962413 259.16891632 535.09482635 258.32423401 535.09336853 C255.69528618 535.08775289 253.06642227 535.07519779 250.4375 535.0625 C248.65950643 535.05748701 246.88151154 535.05292376 245.10351562 535.04882812 C240.73564455 535.03777839 236.36783652 535.02050331 232 535 C232.01740234 536.93166016 232.01740234 536.93166016 232.03515625 538.90234375 C232.0445327 540.58072772 232.05363305 542.25911326 232.0625 543.9375 C232.07087891 544.78763672 232.07925781 545.63777344 232.08789062 546.51367188 C232.09272461 547.72700195 232.09272461 547.72700195 232.09765625 548.96484375 C232.10551147 550.08814087 232.10551147 550.08814087 232.11352539 551.23413086 C232 553 232 553 231 554 C229.65732587 554.08631874 228.31025678 554.10706473 226.96484375 554.09765625 C226.23644287 554.09515869 225.50804199 554.09266113 224.75756836 554.09008789 C223.36163452 554.07643188 223.36163452 554.07643188 221.9375 554.0625 C217.5134375 554.0315625 217.5134375 554.0315625 213 554 C213 560.27 213 566.54 213 573 C201.12 573.33 189.24 573.66 177 574 C176.34 576.31 175.68 578.62 175 581 C98.44 581 21.88 581 -57 581 C-57 578.36 -57 575.72 -57 573 C-58.11560303 573.00523682 -59.23120605 573.01047363 -60.38061523 573.01586914 C-64.50479333 573.03391775 -68.62896791 573.04543149 -72.75317383 573.05493164 C-74.54094021 573.05997218 -76.32870245 573.06680454 -78.11645508 573.07543945 C-80.68051168 573.0875173 -83.24451397 573.09323094 -85.80859375 573.09765625 C-87.01484657 573.10539818 -87.01484657 573.10539818 -88.24546814 573.11329651 C-90.16401715 573.11349215 -92.08245368 573.06201983 -94 573 C-95 572 -95 572 -95.11352539 570.23413086 C-95.10828857 569.48526611 -95.10305176 568.73640137 -95.09765625 567.96484375 C-95.09443359 567.15595703 -95.09121094 566.34707031 -95.08789062 565.51367188 C-95.07951172 564.66353516 -95.07113281 563.81339844 -95.0625 562.9375 C-95.05798828 562.08349609 -95.05347656 561.22949219 -95.04882812 560.34960938 C-95.03700373 558.23304337 -95.01906769 556.11651315 -95 554 C-96.28777344 554.01160156 -97.57554687 554.02320313 -98.90234375 554.03515625 C-100.58072772 554.0445327 -102.25911326 554.05363305 -103.9375 554.0625 C-104.78763672 554.07087891 -105.63777344 554.07925781 -106.51367188 554.08789062 C-107.32255859 554.09111328 -108.13144531 554.09433594 -108.96484375 554.09765625 C-109.7137085 554.10289307 -110.46257324 554.10812988 -111.23413086 554.11352539 C-113 554 -113 554 -114 553 C-114.08631874 551.65732587 -114.10706473 550.31025678 -114.09765625 548.96484375 C-114.09443359 548.15595703 -114.09121094 547.34707031 -114.08789062 546.51367188 C-114.07951172 545.66353516 -114.07113281 544.81339844 -114.0625 543.9375 C-114.05798828 543.08349609 -114.05347656 542.22949219 -114.04882812 541.34960938 C-114.03700373 539.23304337 -114.01906769 537.11651315 -114 535 C-115.11560303 535.00523682 -116.23120605 535.01047363 -117.38061523 535.01586914 C-121.50479333 535.03391775 -125.62896791 535.04543149 -129.75317383 535.05493164 C-131.54094021 535.05997218 -133.32870245 535.06680454 -135.11645508 535.07543945 C-137.68051168 535.0875173 -140.24451397 535.09323094 -142.80859375 535.09765625 C-144.01484657 535.10539818 -144.01484657 535.10539818 -145.24546814 535.11329651 C-147.16401715 535.11349215 -149.08245368 535.06201983 -151 535 C-152 534 -152 534 -152.11352539 532.23413086 C-152.10567017 531.11083374 -152.10567017 531.11083374 -152.09765625 529.96484375 C-152.09282227 528.75151367 -152.09282227 528.75151367 -152.08789062 527.51367188 C-152.07532227 526.2384668 -152.07532227 526.2384668 -152.0625 524.9375 C-152.05798828 524.08349609 -152.05347656 523.22949219 -152.04882812 522.34960938 C-152.03700373 520.23304337 -152.01906769 518.11651315 -152 516 C-153.28777344 516.01160156 -154.57554687 516.02320313 -155.90234375 516.03515625 C-157.58072772 516.0445327 -159.25911326 516.05363305 -160.9375 516.0625 C-161.78763672 516.07087891 -162.63777344 516.07925781 -163.51367188 516.08789062 C-164.32255859 516.09111328 -165.13144531 516.09433594 -165.96484375 516.09765625 C-166.7137085 516.10289307 -167.46257324 516.10812988 -168.23413086 516.11352539 C-170 516 -170 516 -171 515 C-172.13061398 508.27205059 -172.14995708 501.62162257 -172.125 494.8125 C-172.12886719 493.74580078 -172.13273437 492.67910156 -172.13671875 491.58007812 C-172.13542969 490.54947266 -172.13414062 489.51886719 -172.1328125 488.45703125 C-172.13168457 487.52866455 -172.13055664 486.60029785 -172.12939453 485.64379883 C-172.00016526 483.00337662 -171.58628049 480.57421963 -171 478 C-172.27617187 478.02320313 -173.55234375 478.04640625 -174.8671875 478.0703125 C-176.5364525 478.08906829 -178.2057238 478.10726869 -179.875 478.125 C-180.71675781 478.14175781 -181.55851562 478.15851563 -182.42578125 478.17578125 C-183.23144531 478.18222656 -184.03710938 478.18867187 -184.8671875 478.1953125 C-185.61081543 478.20578613 -186.35444336 478.21625977 -187.12060547 478.22705078 C-189 478 -189 478 -191 476 C-191.14557157 473.08274582 -191.18598967 470.28685195 -191.125 467.375 C-191.08375 464.61125 -191.0425 461.8475 -191 459 C-196.94 459 -202.88 459 -209 459 C-209 446.46 -209 433.92 -209 421 C-214.94 421 -220.88 421 -227 421 C-228 420 -228 420 -228.12025452 417.75376892 C-228.1169236 416.26484886 -228.1169236 416.26484886 -228.11352539 414.74584961 C-228.11344986 413.62476303 -228.11337433 412.50367645 -228.11329651 411.34861755 C-228.10813522 410.1288472 -228.10297394 408.90907684 -228.09765625 407.65234375 C-228.0962413 406.41078018 -228.09482635 405.16921661 -228.09336853 403.89002991 C-228.08870591 400.58394509 -228.07971497 397.27792854 -228.06866455 393.97186279 C-228.05844827 390.6003885 -228.05387045 387.22890717 -228.04882812 383.85742188 C-228.03777395 377.23826225 -228.02101736 370.61913507 -228 364 C-229.28777344 364.01160156 -230.57554687 364.02320313 -231.90234375 364.03515625 C-233.58072772 364.0445327 -235.25911326 364.05363305 -236.9375 364.0625 C-237.78763672 364.07087891 -238.63777344 364.07925781 -239.51367188 364.08789062 C-240.72700195 364.09272461 -240.72700195 364.09272461 -241.96484375 364.09765625 C-243.08814087 364.10551147 -243.08814087 364.10551147 -244.23413086 364.11352539 C-246 364 -246 364 -247 363 C-247.09791695 361.49681296 -247.12631799 359.98903867 -247.12698364 358.48266602 C-247.13121338 357.01870895 -247.13121338 357.01870895 -247.13552856 355.525177 C-247.13350433 354.44565765 -247.1314801 353.36613831 -247.12939453 352.25390625 C-247.13114685 351.12395233 -247.13289917 349.99399841 -247.13470459 348.82980347 C-247.13912582 345.07402027 -247.13618416 341.31828372 -247.1328125 337.5625 C-247.13348546 334.96557608 -247.13445542 332.36865222 -247.13571167 329.77172852 C-247.13718901 324.32079411 -247.13512751 318.86987742 -247.13037109 313.41894531 C-247.1249285 307.10860771 -247.12669117 300.79830241 -247.1321975 294.48796558 C-247.13727431 288.428323 -247.13674709 282.36869628 -247.13381577 276.30905151 C-247.13314623 273.72533158 -247.13397585 271.14161083 -247.13629532 268.55789185 C-247.13882025 264.95393657 -247.1349835 261.3500443 -247.12939453 257.74609375 C-247.13141876 256.6665744 -247.13344299 255.58705505 -247.13552856 254.474823 C-247.13270874 253.49885162 -247.12988892 252.52288025 -247.12698364 251.51733398 C-247.12660662 250.66413071 -247.12622959 249.81092743 -247.12584114 248.93186951 C-247 247 -247 247 -246 246 C-244.65732587 245.91368126 -243.31025678 245.89293527 -241.96484375 245.90234375 C-241.15595703 245.90556641 -240.34707031 245.90878906 -239.51367188 245.91210938 C-238.66353516 245.92048828 -237.81339844 245.92886719 -236.9375 245.9375 C-236.08349609 245.94201172 -235.22949219 245.94652344 -234.34960938 245.95117188 C-232.23304337 245.96299627 -230.11651315 245.98093231 -228 246 C-228.00222061 245.30064835 -228.00444122 244.60129669 -228.00672913 243.88075256 C-228.0267328 237.30295079 -228.04197452 230.72515746 -228.05181217 224.14733219 C-228.05703975 220.76528187 -228.06413511 217.3832566 -228.07543945 214.0012207 C-228.08834267 210.11670223 -228.09322924 206.23219403 -228.09765625 202.34765625 C-228.10281754 201.12788589 -228.10797882 199.90811554 -228.11329651 198.65138245 C-228.11340981 196.96975258 -228.11340981 196.96975258 -228.11352539 195.25415039 C-228.115746 194.26153702 -228.11796661 193.26892365 -228.12025452 192.24623108 C-228 190 -228 190 -227 189 C-225.65732587 188.91368126 -224.31025678 188.89293527 -222.96484375 188.90234375 C-222.15595703 188.90556641 -221.34707031 188.90878906 -220.51367188 188.91210938 C-219.66353516 188.92048828 -218.81339844 188.92886719 -217.9375 188.9375 C-217.08349609 188.94201172 -216.22949219 188.94652344 -215.34960938 188.95117188 C-213.23304337 188.96299627 -211.11651315 188.98093231 -209 189 C-209.00523682 187.88439697 -209.01047363 186.76879395 -209.01586914 185.61938477 C-209.03391775 181.49520667 -209.04543149 177.37103209 -209.05493164 173.24682617 C-209.05997218 171.45905979 -209.06680454 169.67129755 -209.07543945 167.88354492 C-209.0875173 165.31948832 -209.09323094 162.75548603 -209.09765625 160.19140625 C-209.10281754 159.3872377 -209.10797882 158.58306915 -209.11329651 157.75453186 C-209.11349215 155.83598285 -209.06201983 153.91754632 -209 152 C-208 151 -208 151 -204.18359375 150.90234375 C-202.60153318 150.90901911 -201.01948841 150.92098125 -199.4375 150.9375 C-198.63119141 150.94201172 -197.82488281 150.94652344 -196.99414062 150.95117188 C-194.99606244 150.96299482 -192.99802217 150.98093086 -191 151 C-191.02320313 149.87980469 -191.04640625 148.75960937 -191.0703125 147.60546875 C-191.08907237 146.13281916 -191.10727234 144.66016237 -191.125 143.1875 C-191.14175781 142.44951172 -191.15851563 141.71152344 -191.17578125 140.95117188 C-191.21074628 137.08753574 -191.19397555 135.29096332 -189 132 C-187.12060547 131.65942383 -187.12060547 131.65942383 -184.8671875 131.70703125 C-184.06152344 131.71669922 -183.25585938 131.72636719 -182.42578125 131.73632812 C-181.58402344 131.76146484 -180.74226563 131.78660156 -179.875 131.8125 C-179.02550781 131.82603516 -178.17601562 131.83957031 -177.30078125 131.85351562 C-175.20025163 131.88891781 -173.10004707 131.94272599 -171 132 C-171.12568359 130.88431641 -171.12568359 130.88431641 -171.25390625 129.74609375 C-172.00745145 121.66694457 -171.97589507 113.78821709 -171.625 105.6875 C-171.58189697 104.65488037 -171.53879395 103.62226074 -171.49438477 102.55834961 C-171.13131857 95.13131857 -171.13131857 95.13131857 -170 94 C-168.65732587 93.91368126 -167.31025678 93.89293527 -165.96484375 93.90234375 C-165.15595703 93.90556641 -164.34707031 93.90878906 -163.51367188 93.91210938 C-162.66353516 93.92048828 -161.81339844 93.92886719 -160.9375 93.9375 C-160.08349609 93.94201172 -159.22949219 93.94652344 -158.34960938 93.95117188 C-156.23304337 93.96299627 -154.11651315 93.98093231 -152 94 C-152.01160156 92.71222656 -152.02320313 91.42445313 -152.03515625 90.09765625 C-152.0445327 88.41927228 -152.05363305 86.74088674 -152.0625 85.0625 C-152.07087891 84.21236328 -152.07925781 83.36222656 -152.08789062 82.48632812 C-152.09111328 81.67744141 -152.09433594 80.86855469 -152.09765625 80.03515625 C-152.10289307 79.2862915 -152.10812988 78.53742676 -152.11352539 77.76586914 C-152 76 -152 76 -151 75 C-148.26105915 74.91141354 -145.5474673 74.88476521 -142.80859375 74.90234375 C-141.98875504 74.9037587 -141.16891632 74.90517365 -140.32423401 74.90663147 C-137.69528618 74.91224711 -135.06642227 74.92480221 -132.4375 74.9375 C-130.65950643 74.94251299 -128.88151154 74.94707624 -127.10351562 74.95117188 C-122.73564455 74.96222161 -118.36783652 74.97949669 -114 75 C-114.01160156 73.71222656 -114.02320313 72.42445313 -114.03515625 71.09765625 C-114.0445327 69.41927228 -114.05363305 67.74088674 -114.0625 66.0625 C-114.07087891 65.21236328 -114.07925781 64.36222656 -114.08789062 63.48632812 C-114.09111328 62.67744141 -114.09433594 61.86855469 -114.09765625 61.03515625 C-114.10289307 60.2862915 -114.10812988 59.53742676 -114.11352539 58.76586914 C-114 57 -114 57 -113 56 C-111.65732587 55.91368126 -110.31025678 55.89293527 -108.96484375 55.90234375 C-108.15595703 55.90556641 -107.34707031 55.90878906 -106.51367188 55.91210938 C-105.2384668 55.92467773 -105.2384668 55.92467773 -103.9375 55.9375 C-103.08349609 55.94201172 -102.22949219 55.94652344 -101.34960938 55.95117188 C-99.23304337 55.96299627 -97.11651315 55.98093231 -95 56 C-95.01160156 54.71222656 -95.02320313 53.42445312 -95.03515625 52.09765625 C-95.0445327 50.41927228 -95.05363305 48.74088674 -95.0625 47.0625 C-95.07087891 46.21236328 -95.07925781 45.36222656 -95.08789062 44.48632812 C-95.09111328 43.67744141 -95.09433594 42.86855469 -95.09765625 42.03515625 C-95.10289307 41.2862915 -95.10812988 40.53742676 -95.11352539 39.76586914 C-95 38 -95 38 -94 37 C-91.26105915 36.91141354 -88.5474673 36.88476521 -85.80859375 36.90234375 C-84.98875504 36.9037587 -84.16891632 36.90517365 -83.32423401 36.90663147 C-80.69528618 36.91224711 -78.06642227 36.92480221 -75.4375 36.9375 C-73.65950643 36.94251299 -71.88151154 36.94707624 -70.10351562 36.95117188 C-65.73564455 36.96222161 -61.36783652 36.97949669 -57 37 C-57.01160156 35.71222656 -57.02320313 34.42445312 -57.03515625 33.09765625 C-57.0445327 31.41927228 -57.05363305 29.74088674 -57.0625 28.0625 C-57.07087891 27.21236328 -57.07925781 26.36222656 -57.08789062 25.48632812 C-57.09111328 24.67744141 -57.09433594 23.86855469 -57.09765625 23.03515625 C-57.10289307 22.2862915 -57.10812988 21.53742676 -57.11352539 20.76586914 C-57 19 -57 19 -56 18 C-54.2507128 17.90634994 -52.49763746 17.88255562 -50.74584961 17.88647461 C-49.62476303 17.88655014 -48.50367645 17.88662567 -47.34861755 17.88670349 C-45.51896202 17.89444542 -45.51896202 17.89444542 -43.65234375 17.90234375 C-41.7899984 17.90446617 -41.7899984 17.90446617 -39.89002991 17.90663147 C-36.58394509 17.91129409 -33.27792854 17.92028503 -29.97186279 17.93133545 C-26.6003885 17.94155173 -23.22890717 17.94612955 -19.85742188 17.95117188 C-13.23825982 17.96222605 -6.61913929 17.9795034 0 18 C0 12.06 0 6.12 0 0 Z M2 39 C2 45.27 2 51.54 2 58 C-16.81 58 -35.62 58 -55 58 C-55 64.27 -55 70.54 -55 77 C-67.54 77 -80.08 77 -93 77 C-93 83.27 -93 89.54 -93 96 C-99.27 96 -105.54 96 -112 96 C-112 102.27 -112 108.54 -112 115 C-118.27 115 -124.54 115 -131 115 C-131 121.27 -131 127.54 -131 134 C-137.27 134 -143.54 134 -150 134 C-150 146.54 -150 159.08 -150 172 C-156.27 172 -162.54 172 -169 172 C-169 178.27 -169 184.54 -169 191 C-175.27 191 -181.54 191 -188 191 C-188 209.81 -188 228.62 -188 248 C-194.27 248 -200.54 248 -207 248 C-207 285.62 -207 323.24 -207 362 C-200.73 362 -194.46 362 -188 362 C-188 380.81 -188 399.62 -188 419 C-181.73 419 -175.46 419 -169 419 C-169 425.27 -169 431.54 -169 438 C-162.73 438 -156.46 438 -150 438 C-150 450.54 -150 463.08 -150 476 C-143.73 476 -137.46 476 -131 476 C-131 482.27 -131 488.54 -131 495 C-124.73 495 -118.46 495 -112 495 C-112 501.27 -112 507.54 -112 514 C-105.73 514 -99.46 514 -93 514 C-93 520.27 -93 526.54 -93 533 C-80.46 533 -67.92 533 -55 533 C-55 539.27 -55 545.54 -55 552 C-36.19 552 -17.38 552 2 552 C2 558.27 2 564.54 2 571 C39.62 571 77.24 571 116 571 C116 564.73 116 558.46 116 552 C134.81 552 153.62 552 173 552 C173 545.73 173 539.46 173 533 C185.54 533 198.08 533 211 533 C211 526.73 211 520.46 211 514 C217.27 514 223.54 514 230 514 C230 507.73 230 501.46 230 495 C236.27 495 242.54 495 249 495 C249 488.73 249 482.46 249 476 C255.27 476 261.54 476 268 476 C268 463.46 268 450.92 268 438 C274.27 438 280.54 438 287 438 C287 431.73 287 425.46 287 419 C293.27 419 299.54 419 306 419 C306 400.19 306 381.38 306 362 C312.27 362 318.54 362 325 362 C325 324.38 325 286.76 325 248 C318.73 248 312.46 248 306 248 C306 229.19 306 210.38 306 191 C299.73 191 293.46 191 287 191 C287 184.73 287 178.46 287 172 C280.73 172 274.46 172 268 172 C268 159.46 268 146.92 268 134 C261.73 134 255.46 134 249 134 C249 127.73 249 121.46 249 115 C242.73 115 236.46 115 230 115 C230 108.73 230 102.46 230 96 C223.73 96 217.46 96 211 96 C211 89.73 211 83.46 211 77 C198.46 77 185.92 77 173 77 C173 70.73 173 64.46 173 58 C154.19 58 135.38 58 116 58 C116 51.73 116 45.46 116 39 C78.38 39 40.76 39 2 39 Z " fill="#020202" transform="translate(503,67)"/>
<path d="M0 0 C30.36 0 60.72 0 92 0 C92 6.27 92 12.54 92 19 C96.95 19 101.9 19 107 19 C107 48.04 107 77.08 107 107 C100.73 107 94.46 107 88 107 C88 113.27 88 119.54 88 126 C58.96 126 29.92 126 0 126 C0 119.73 0 113.46 0 107 C-6.27 107 -12.54 107 -19 107 C-19 77.96 -19 48.92 -19 19 C-12.73 19 -6.46 19 0 19 C0 12.73 0 6.46 0 0 Z " fill="#010101" transform="translate(497,307)"/>
<path d="M0 0 C34.98 0 69.96 0 106 0 C106 11.55 106 23.1 106 35 C75.97 35 45.94 35 15 35 C15 53.81 15 72.62 15 92 C45.03 92 75.06 92 106 92 C106 103.22 106 114.44 106 126 C70.69 126 35.38 126 -1 126 C-1 121.05 -1 116.1 -1 111 C-6.94 111 -12.88 111 -19 111 C-19 80.64 -19 50.28 -19 19 C-12.73 19 -6.46 19 0 19 C0 12.73 0 6.46 0 0 Z " fill="#010101" transform="translate(642,307)"/>
<path d="M0 0 C36.63 0 73.26 0 111 0 C111 12.87 111 25.74 111 39 C98.46 39 85.92 39 73 39 C73 68.04 73 97.08 73 127 C60.46 127 47.92 127 35 127 C35 97.96 35 68.92 35 39 C23.45 39 11.9 39 0 39 C0 26.13 0 13.26 0 0 Z " fill="#010101" transform="translate(352,306)"/>
<path d="M0 0 C18.15 0 36.3 0 55 0 C55 18.81 55 37.62 55 57 C36.19 57 17.38 57 -2 57 C-2 39.18 -2 21.36 -2 3 C-1.34 3 -0.68 3 0 3 C0 2.01 0 1.02 0 0 Z " fill="#D7D7D7" transform="translate(515,342)"/>
<path d="M0 0 C36.63 0 73.26 0 111 0 C111 12.87 111 25.74 111 39 C98.46 39 85.92 39 73 39 C73 68.04 73 97.08 73 127 C72.67 127 72.34 127 72 127 C72 96.97 72 66.94 72 36 C83.55 36 95.1 36 107 36 C107 24.45 107 12.9 107 1 C72.02 1 37.04 1 1 1 C1 12.55 1 24.1 1 36 C13.54 36 26.08 36 39 36 C39 66.03 39 96.06 39 127 C37.68 127 36.36 127 35 127 C35 97.96 35 68.92 35 39 C23.45 39 11.9 39 0 39 C0 26.13 0 13.26 0 0 Z " fill="#666666" transform="translate(352,306)"/>
<path d="M0 0 C30.03 0 60.06 0 91 0 C91 0.99 91 1.98 91 3 C62.29 3 33.58 3 4 3 C4 19.5 4 36 4 53 C32.71 53 61.42 53 91 53 C91 54.32 91 55.64 91 57 C60.97 57 30.94 57 0 57 C0 38.19 0 19.38 0 0 Z " fill="#818181" transform="translate(657,342)"/>
<path d="M0 0 C18.15 0 36.3 0 55 0 C55 18.81 55 37.62 55 57 C36.19 57 17.38 57 -2 57 C-2 39.18 -2 21.36 -2 3 C-1.34 3 -0.68 3 0 3 C0 2.01 0 1.02 0 0 Z M1 3 C1 19.5 1 36 1 53 C18.49 53 35.98 53 54 53 C54 36.5 54 20 54 3 C36.51 3 19.02 3 1 3 Z " fill="#787878" transform="translate(515,342)"/>
<path d="M0 0 C1.32 0 2.64 0 4 0 C4.02315806 11.40468796 4.0409328 22.80937033 4.05181217 34.214077 C4.0570334 39.50958842 4.0641173 44.80508377 4.07543945 50.10058594 C4.08629527 55.20988371 4.09228258 60.31916601 4.09487724 65.42847443 C4.09672662 67.37893162 4.10033791 69.32938795 4.10573006 71.27983856 C4.11297619 74.00916889 4.11398942 76.73843506 4.11352539 79.46777344 C4.11712067 80.27625732 4.12071594 81.08474121 4.12442017 81.91772461 C4.1177805 85.52065666 3.88051448 88.47794208 3 92 C-2.94 92 -8.88 92 -15 92 C-15 96.95 -15 101.9 -15 107 C-16.32 107 -17.64 107 -19 107 C-19 100.73 -19 94.46 -19 88 C-12.73 88 -6.46 88 0 88 C0 58.96 0 29.92 0 0 Z " fill="#A6A6A6" transform="translate(604,326)"/>
<path d="M0 0 C36.63 0 73.26 0 111 0 C111 12.87 111 25.74 111 39 C98.46 39 85.92 39 73 39 C73 68.04 73 97.08 73 127 C72.67 127 72.34 127 72 127 C72 96.97 72 66.94 72 36 C83.55 36 95.1 36 107 36 C107 24.45 107 12.9 107 1 C71.69 1 36.38 1 0 1 C0 0.67 0 0.34 0 0 Z " fill="#A5A5A5" transform="translate(352,306)"/>
<path d="M0 0 C28.71 0 57.42 0 87 0 C87 1.32 87 2.64 87 4 C58.29 4 29.58 4 0 4 C0 2.68 0 1.36 0 0 Z " fill="#8B8B8B" transform="translate(661,395)"/>
<path d="M0 0 C0.99 0 1.98 0 3 0 C3 37.62 3 75.24 3 114 C2.01 114 1.02 114 0 114 C0 76.38 0 38.76 0 0 Z " fill="#070520" transform="translate(256,314)"/>
<path d="M0 0 C30.03 0 60.06 0 91 0 C91 11.22 91 22.44 91 34 C55.69 34 20.38 34 -16 34 C-16 29.05 -16 24.1 -16 19 C-21.94 19 -27.88 19 -34 19 C-34 17.68 -34 16.36 -34 15 C-27.73 15 -21.46 15 -15 15 C-14 19 -14 19 -14 33 C20.32 33 54.64 33 90 33 C90 22.44 90 11.88 90 1 C60.3 1 30.6 1 0 1 C0 0.67 0 0.34 0 0 Z " fill="#212121" transform="translate(657,399)"/>
<path d="M0 0 C0.33 0 0.66 0 1 0 C1 5.94 1 11.88 1 18 C6.87883003 17.96042231 6.87883003 17.96042231 12.75756836 17.90991211 C13.48596924 17.90741455 14.21437012 17.90491699 14.96484375 17.90234375 C15.7137085 17.89710693 16.46257324 17.89187012 17.23413086 17.88647461 C19 18 19 18 20 19 C20.08858646 21.73894085 20.11523479 24.4525327 20.09765625 27.19140625 C20.0962413 28.01124496 20.09482635 28.83108368 20.09336853 29.67576599 C20.08775289 32.30471382 20.07519779 34.93357773 20.0625 37.5625 C20.05748701 39.34049357 20.05292376 41.11848846 20.04882812 42.89648438 C20.03862752 47.26438158 20.01905532 51.6320964 20 56 C25.94 56 31.88 56 38 56 C38.495 58.475 38.495 58.475 39 61 C38.67 60.01 38.34 59.02 38 58 C37.01 58.495 37.01 58.495 36 59 C29.73 59 23.46 59 17 59 C17 46.46 17 33.92 17 21 C11.06 21 5.12 21 -1 21 C-0.67 14.07 -0.34 7.14 0 0 Z " fill="#050928" transform="translate(810,200)"/>
<path d="M0 0 C0.66 0 1.32 0 2 0 C2 5.94 2 11.88 2 18 C5.98900391 17.98259766 5.98900391 17.98259766 10.05859375 17.96484375 C12.62345256 17.95705348 15.18831007 17.95097655 17.75317383 17.94506836 C19.54094021 17.94002782 21.32870245 17.93319546 23.11645508 17.92456055 C25.68051168 17.9124827 28.24451397 17.90676906 30.80859375 17.90234375 C31.6127623 17.89718246 32.41693085 17.89202118 33.24546814 17.88670349 C35.16401715 17.88650785 37.08245368 17.93798017 39 18 C40 19 40 19 40.11352539 20.85766602 C40.10828857 21.64842529 40.10305176 22.43918457 40.09765625 23.25390625 C40.09443359 24.10791016 40.09121094 24.96191406 40.08789062 25.84179688 C40.07532227 27.18854492 40.07532227 27.18854492 40.0625 28.5625 C40.05798828 29.46419922 40.05347656 30.36589844 40.04882812 31.29492188 C40.03700225 33.53001314 40.0205222 35.76497437 40 38 C38.02 38.495 38.02 38.495 36 39 C36 33.06 36 27.12 36 21 C23.79 21 11.58 21 -1 21 C-1 4 -1 4 0 0 Z " fill="#010011" transform="translate(676,86)"/>
<path d="M0 0 C0.99 0 1.98 0 3 0 C3.19645093 3.12450532 3.38063489 6.24961445 3.5625 9.375 C3.64661133 10.70917969 3.64661133 10.70917969 3.73242188 12.0703125 C3.78076172 12.92109375 3.82910156 13.771875 3.87890625 14.6484375 C3.9260376 15.43395996 3.97316895 16.21948242 4.02172852 17.02880859 C4 19 4 19 3 21 C-9.54 21 -22.08 21 -35 21 C-35 26.94 -35 32.88 -35 39 C-36.32 39.66 -37.64 40.32 -39 41 C-38.86183041 37.35383329 -38.71318466 33.70816926 -38.5625 30.0625 C-38.52318359 29.02158203 -38.48386719 27.98066406 -38.44335938 26.90820312 C-38.40146484 25.91884766 -38.35957031 24.92949219 -38.31640625 23.91015625 C-38.27974854 22.99371338 -38.24309082 22.07727051 -38.20532227 21.13305664 C-38 19 -38 19 -37 18 C-34.26105915 17.91141354 -31.5474673 17.88476521 -28.80859375 17.90234375 C-27.57883568 17.90446617 -27.57883568 17.90446617 -26.32423401 17.90663147 C-23.69528618 17.91224711 -21.06642227 17.92480221 -18.4375 17.9375 C-16.65950643 17.94251299 -14.88151154 17.94707624 -13.10351562 17.95117188 C-8.73561842 17.96137248 -4.3679036 17.98094468 0 18 C0 12.06 0 6.12 0 0 Z " fill="#020219" transform="translate(446,86)"/>
<path d="M0 0 C0.33 0 0.66 0 1 0 C1.042721 1.66611905 1.04063832 3.33382885 1 5 C0.67 5.33 0.34 5.66 0 6 C-5.94 6 -11.88 6 -18 6 C-18 18.54 -18 31.08 -18 44 C-24.6 44.33 -31.2 44.66 -38 45 C-38.33 43.68 -38.66 42.36 -39 41 C-33.06 41 -27.12 41 -21 41 C-21 28.46 -21 15.92 -21 3 C-14.07 3 -7.14 3 0 3 C0 2.01 0 1.02 0 0 Z " fill="#0A0926" transform="translate(848,482)"/>
<path d="M0 0 C6.93 0 13.86 0 21 0 C21 12.54 21 25.08 21 38 C26.94 38 32.88 38 39 38 C38.67 38.99 38.34 39.98 38 41 C31.4 41 24.8 41 18 41 C18 28.46 18 15.92 18 3 C12.06 3 6.12 3 0 3 C0 2.01 0 1.02 0 0 Z " fill="#04021F" transform="translate(276,485)"/>
<path d="M0 0 C0.78117187 -0.020625 1.56234375 -0.04125 2.3671875 -0.0625 C4.45567531 -0.07680471 6.54353719 0.07824865 8.625 0.25 C9.615 1.24 10.605 2.23 11.625 3.25 C5.685 3.25 -0.255 3.25 -6.375 3.25 C-6.375 15.79 -6.375 28.33 -6.375 41.25 C-11.263125 41.311875 -11.263125 41.311875 -16.25 41.375 C-17.27593262 41.39320801 -18.30186523 41.41141602 -19.35888672 41.43017578 C-20.16600098 41.4351709 -20.97311523 41.44016602 -21.8046875 41.4453125 C-22.63210449 41.45578613 -23.45952148 41.46625977 -24.31201172 41.47705078 C-26.375 41.25 -26.375 41.25 -28.375 39.25 C-27.375 38.25 -27.375 38.25 -25.60913086 38.13647461 C-24.86026611 38.14171143 -24.11140137 38.14694824 -23.33984375 38.15234375 C-22.53095703 38.15556641 -21.72207031 38.15878906 -20.88867188 38.16210938 C-20.03853516 38.17048828 -19.18839844 38.17886719 -18.3125 38.1875 C-17.45849609 38.19201172 -16.60449219 38.19652344 -15.72460938 38.20117188 C-13.60804337 38.21299627 -11.49151315 38.23093231 -9.375 38.25 C-9.38285522 36.57659546 -9.38285522 36.57659546 -9.39086914 34.86938477 C-9.40891775 30.74520667 -9.42043149 26.62103209 -9.42993164 22.49682617 C-9.43497218 20.70905979 -9.44180454 18.92129755 -9.45043945 17.13354492 C-9.4625173 14.56948832 -9.46823094 12.00548603 -9.47265625 9.44140625 C-9.47781754 8.6372377 -9.48297882 7.83306915 -9.48829651 7.00453186 C-9.48849215 5.08598285 -9.43701983 3.16754632 -9.375 1.25 C-7.272997 -0.852003 -2.89201417 0.01890205 0 0 Z " fill="#010427" transform="translate(303.375,217.75)"/>
<path d="M0 0 C-0.33 5.94 -0.66 11.88 -1 18 C11.54 18 24.08 18 37 18 C37 21.63 37 25.26 37 29 C36.01 29 35.02 29 34 29 C34 26.36 34 23.72 34 21 C32.88439697 21.00523682 31.76879395 21.01047363 30.61938477 21.01586914 C26.49520667 21.03391775 22.37103209 21.04543149 18.24682617 21.05493164 C16.45905979 21.05997218 14.67129755 21.06680454 12.88354492 21.07543945 C10.31948832 21.0875173 7.75548603 21.09323094 5.19140625 21.09765625 C3.98515343 21.10539818 3.98515343 21.10539818 2.75453186 21.11329651 C0.83598285 21.11349215 -1.08245368 21.06201983 -3 21 C-4 20 -4 20 -4.11352539 18.23413086 C-4.10828857 17.48526611 -4.10305176 16.73640137 -4.09765625 15.96484375 C-4.09443359 15.15595703 -4.09121094 14.34707031 -4.08789062 13.51367188 C-4.07951172 12.66353516 -4.07113281 11.81339844 -4.0625 10.9375 C-4.05798828 10.08349609 -4.05347656 9.22949219 -4.04882812 8.34960938 C-4.03700373 6.23304337 -4.01906769 4.11651315 -4 2 C-4.66 1.67 -5.32 1.34 -6 1 C-4 0 -4 0 0 0 Z " fill="#070B2D" transform="translate(412,619)"/>
<path d="M0 0 C16.5 0 33 0 50 0 C50 1.32 50 2.64 50 4 C33.5 4 17 4 0 4 C0 2.68 0 1.36 0 0 Z " fill="#7E7E7E" transform="translate(516,395)"/>
<path d="M0 0 C30.36 0 60.72 0 92 0 C92 6.27 92 12.54 92 19 C90.35 19 88.7 19 87 19 C87 13.06 87 7.12 87 1 C58.62 1 30.24 1 1 1 C1 6.94 1 12.88 1 19 C0.67 19 0.34 19 0 19 C0 12.73 0 6.46 0 0 Z " fill="#1F1F1F" transform="translate(497,307)"/>
<path d="M0 0 C0.66 0.33 1.32 0.66 2 1 C2 7.27 2 13.54 2 20 C-9.88 20.33 -21.76 20.66 -34 21 C-34.66 23.31 -35.32 25.62 -36 28 C-36.99 28 -37.98 28 -39 28 C-39 24.37 -39 20.74 -39 17 C-26.46 17 -13.92 17 -1 17 C-1 11.72 -1 6.44 -1 1 C-0.67 0.67 -0.34 0.34 0 0 Z " fill="#080B34" transform="translate(714,620)"/>
<path d="M0 0 C11.55 0 23.1 0 35 0 C35 0.99 35 1.98 35 3 C23.78 3 12.56 3 1 3 C1 32.04 1 61.08 1 91 C0.67 91 0.34 91 0 91 C0 60.97 0 30.94 0 0 Z " fill="#5C5C5C" transform="translate(424,342)"/>
<path d="M0 0 C0.33 0 0.66 0 1 0 C1 29.04 1 58.08 1 88 C7.27 88 13.54 88 20 88 C20 94.27 20 100.54 20 107 C19.67 107 19.34 107 19 107 C19 102.05 19 97.1 19 92 C12.73 92 6.46 92 0 92 C0 61.64 0 31.28 0 0 Z " fill="#929292" transform="translate(477,326)"/>
<path d="M0 0 C0.99 0 1.98 0 3 0 C3 16.5 3 33 3 50 C2.01 50 1.02 50 0 50 C0 33.5 0 17 0 0 Z " fill="#7F7F7F" transform="translate(658,345)"/>
<path d="M0 0 C0.99 0 1.98 0 3 0 C3 16.5 3 33 3 50 C2.01 50 1.02 50 0 50 C0 33.5 0 17 0 0 Z " fill="#A7A7A7" transform="translate(566,345)"/>
<path d="M0 0 C30.03 0 60.06 0 91 0 C91 0.33 91 0.66 91 1 C61.96 1 32.92 1 3 1 C3 7.27 3 13.54 3 20 C2.01 20 1.02 20 0 20 C0 13.4 0 6.8 0 0 Z " fill="#B4B4B4" transform="translate(494,306)"/>
<path d="M0 0 C0.33 0 0.66 0 1 0 C1 11.55 1 23.1 1 35 C12.22 35 23.44 35 35 35 C35 35.99 35 36.98 35 38 C23.45 38 11.9 38 0 38 C0 25.46 0 12.92 0 0 Z " fill="#6E6E6E" transform="translate(352,307)"/>
<path d="M0 0 C6.27 0 12.54 0 19 0 C19 1.32 19 2.64 19 4 C14.05 4 9.1 4 4 4 C4 8.95 4 13.9 4 19 C2.68 19 1.36 19 0 19 C0 12.73 0 6.46 0 0 Z " fill="#595959" transform="translate(585,414)"/>
<path d="M0 0 C0.66 0 1.32 0 2 0 C2 12.21 2 24.42 2 37 C1.01 37 0.02 37 -1 37 C-2.28939002 31.04817567 -2.18382614 25.12069564 -2.1875 19.0625 C-2.19974609 18.00353516 -2.21199219 16.94457031 -2.22460938 15.85351562 C-2.2352521 10.16675314 -1.9304831 5.36414869 0 0 Z " fill="#060648" transform="translate(333,543)"/>
<path d="M0 0 C0.66 0 1.32 0 2 0 C3.61301773 3.22603545 3.12053599 6.74710038 3.09765625 10.2890625 C3.0962413 11.10748627 3.09482635 11.92591003 3.09336853 12.76913452 C3.0877629 15.38779325 3.07520948 18.00636704 3.0625 20.625 C3.05748572 22.39843627 3.05292269 24.17187387 3.04882812 25.9453125 C3.03779164 30.29690782 3.02052325 34.6484395 3 39 C2.01 39 1.02 39 0 39 C-1.23374177 25.92233728 -0.75915273 13.0966756 0 0 Z " fill="#04031E" transform="translate(332,162)"/>
<path d="M0 0 C0.495 1.485 0.495 1.485 1 3 C0 4 0 4 -3.60180664 4.11352539 C-5.20459856 4.11336625 -6.8073956 4.10767063 -8.41015625 4.09765625 C-9.25219101 4.0962413 -10.09422577 4.09482635 -10.96177673 4.09336853 C-13.66205335 4.08775263 -16.36224828 4.07519748 -19.0625 4.0625 C-20.88867068 4.05748705 -22.71484266 4.05292379 -24.54101562 4.04882812 C-29.02737542 4.03777804 -33.51367384 4.02050279 -38 4 C-38.33 3.01 -38.66 2.02 -39 1 C-26.13 0.67 -13.26 0.34 0 0 Z " fill="#080123" transform="translate(772,598)"/>
<path d="M0 0 C1.26092972 0.00212242 1.26092972 0.00212242 2.54733276 0.00428772 C5.23732025 0.00989388 7.92722509 0.02244739 10.6171875 0.03515625 C12.43880088 0.04017046 14.26041557 0.0447335 16.08203125 0.04882812 C20.55211527 0.05986531 25.02213736 0.07713405 29.4921875 0.09765625 C29.1621875 1.74765625 28.8321875 3.39765625 28.4921875 5.09765625 C27.9971875 4.10765625 27.9971875 4.10765625 27.4921875 3.09765625 C15.2821875 3.09765625 3.0721875 3.09765625 -9.5078125 3.09765625 C-9.8378125 2.43765625 -10.1678125 1.77765625 -10.5078125 1.09765625 C-7.22889325 -0.54180338 -3.60167716 -0.02264553 0 0 Z " fill="#080120" transform="translate(361.5078125,598.90234375)"/>
<path d="M0 0 C0.99 0.33 1.98 0.66 3 1 C3 13.54 3 26.08 3 39 C2.01 39 1.02 39 0 39 C0 26.13 0 13.26 0 0 Z " fill="#080925" transform="translate(789,543)"/>
<path d="M0 0 C0.99 0 1.98 0 3 0 C3.02467917 5.23274388 3.04285003 10.46545403 3.05493164 15.69824219 C3.05996711 17.47917267 3.06679581 19.260099 3.07543945 21.04101562 C3.08753942 23.59766665 3.09323609 26.15426312 3.09765625 28.7109375 C3.10281754 29.50994476 3.10797882 30.30895203 3.11329651 31.13217163 C3.11387171 36.77225659 3.11387171 36.77225659 2 39 C1.34 39 0.68 39 0 39 C0 26.13 0 13.26 0 0 Z " fill="#080821" transform="translate(789,162)"/>
<path d="M0 0 C0.99 0 1.98 0 3 0 C3 11.55 3 23.1 3 35 C2.01 35 1.02 35 0 35 C0 23.45 0 11.9 0 0 Z " fill="#A7A7A7" transform="translate(748,307)"/>
<path d="M0 0 C0.99 0 1.98 0 3 0 C3 11.55 3 23.1 3 35 C2.01 35 1.02 35 0 35 C0 23.45 0 11.9 0 0 Z " fill="#5F5F5F" transform="translate(459,307)"/>
<path d="M0 0 C0.99 0 1.98 0 3 0 C3 11.22 3 22.44 3 34 C2.01 34 1.02 34 0 34 C0 22.78 0 11.56 0 0 Z " fill="#ACACAC" transform="translate(748,399)"/>
<path d="M0 0 C2.10658382 4.21316763 2.26221542 7.06480643 2.1953125 11.609375 C2.1924826 12.33618469 2.18965271 13.06299438 2.18673706 13.81182861 C2.17557523 16.12472251 2.15047851 18.43722388 2.125 20.75 C2.11496501 22.32160898 2.10584006 23.89322404 2.09765625 25.46484375 C2.07564904 29.31004622 2.04114715 33.15495664 2 37 C-0.58361518 37.05407567 -3.16609255 37.093707 -5.75 37.125 C-6.47960937 37.14175781 -7.20921875 37.15851563 -7.9609375 37.17578125 C-12.13521398 37.21372922 -14.16970546 36.91514727 -18 35 C-12.06 35 -6.12 35 0 35 C0 23.45 0 11.9 0 0 Z " fill="#040319" transform="translate(294,221)"/>
<path d="M0 0 C1.32 0 2.64 0 4 0 C4 30.03 4 60.06 4 91 C3.67 91 3.34 91 3 91 C3 61.96 3 32.92 3 3 C2.01 3 1.02 3 0 3 C0 2.01 0 1.02 0 0 Z " fill="#444444" transform="translate(387,342)"/>
<path d="M0 0 C6.27 0 12.54 0 19 0 C19 6.27 19 12.54 19 19 C18.67 19 18.34 19 18 19 C18 14.05 18 9.1 18 4 C12.06 4 6.12 4 0 4 C0 2.68 0 1.36 0 0 Z " fill="#6B6B6B" transform="translate(623,414)"/>
<path d="M0 0 C6.27 0 12.54 0 19 0 C19 6.27 19 12.54 19 19 C18.67 19 18.34 19 18 19 C18 14.05 18 9.1 18 4 C12.06 4 6.12 4 0 4 C0 2.68 0 1.36 0 0 Z " fill="#646464" transform="translate(478,414)"/>
<path d="M0 0 C2.64 0 5.28 0 8 0 C8 6.27 8 12.54 8 19 C6.68 19.33 5.36 19.66 4 20 C4 14.06 4 8.12 4 2 C2.35 2 0.7 2 -1 2 C-0.67 1.34 -0.34 0.68 0 0 Z " fill="#030631" transform="translate(708,105)"/>
<path d="M0 0 C12.21 0 24.42 0 37 0 C37.495 0.99 37.495 0.99 38 2 C36.47862427 2.01401855 36.47862427 2.01401855 34.92651367 2.02832031 C31.16337158 2.06819362 27.4010494 2.13394342 23.63842773 2.20751953 C22.00995415 2.23574489 20.38134317 2.25695172 18.75268555 2.27099609 C16.41123029 2.29240532 14.07142955 2.33903964 11.73046875 2.390625 C10.63813179 2.39246796 10.63813179 2.39246796 9.52372742 2.39434814 C5.28328552 2.51591769 5.28328552 2.51591769 2.0168457 5.03808594 C1.68128662 5.68551758 1.34572754 6.33294922 1 7 C0.67 6.67 0.34 6.34 0 6 C0 4.02 0 2.04 0 0 Z " fill="#0C1037" transform="translate(676,638)"/>
<path d="M0 0 C1.32 0 2.64 0 4 0 C4 0.99 4 1.98 4 3 C3.01 3 2.02 3 1 3 C1 19.5 1 36 1 53 C1.99 53 2.98 53 4 53 C4 54.32 4 55.64 4 57 C2.68 57 1.36 57 0 57 C0 38.19 0 19.38 0 0 Z " fill="#545454" transform="translate(657,342)"/>
<path d="M0 0 C1.32 0 2.64 0 4 0 C4 6.27 4 12.54 4 19 C2.68 19 1.36 19 0 19 C0 12.73 0 6.46 0 0 Z " fill="#707070" transform="translate(585,307)"/>
<path d="M0 0 C0.66 0 1.32 0 2 0 C2 6.27 2 12.54 2 19 C4.97 19 7.94 19 11 19 C10.67 19.66 10.34 20.32 10 21 C6.37 21 2.74 21 -1 21 C-1.0270203 18.24993392 -1.04684883 15.50013454 -1.0625 12.75 C-1.07087891 11.97269531 -1.07925781 11.19539063 -1.08789062 10.39453125 C-1.09111328 9.64042969 -1.09433594 8.88632813 -1.09765625 8.109375 C-1.10289307 7.41811523 -1.10812988 6.72685547 -1.11352539 6.01464844 C-0.99437971 3.90026102 -0.57618237 2.03358485 0 0 Z " fill="#040525" transform="translate(676,86)"/>
<path d="M0 0 C18.15 0 36.3 0 55 0 C55 0.99 55 1.98 55 3 C53.68 3 52.36 3 51 3 C51 2.34 51 1.68 51 1 C34.5 1 18 1 1 1 C0.67 1.66 0.34 2.32 0 3 C0 2.01 0 1.02 0 0 Z " fill="#606060" transform="translate(515,342)"/>
<path d="M0 0 C0.99 0 1.98 0 3 0 C3 0.99 3 1.98 3 3 C2.34 3 1.68 3 1 3 C1 20.82 1 38.64 1 57 C0.67 57 0.34 57 0 57 C0 38.19 0 19.38 0 0 Z " fill="#222222" transform="translate(512,342)"/>
<path d="M0 0 C0.33 0 0.66 0 1 0 C1 16.5 1 33 1 50 C1.66 50 2.32 50 3 50 C3 51.32 3 52.64 3 54 C2.01 54 1.02 54 0 54 C0 36.18 0 18.36 0 0 Z " fill="#545454" transform="translate(513,345)"/>
<path d="M0 0 C1.32 0 2.64 0 4 0 C4 4.95 4 9.9 4 15 C2.68 15 1.36 15 0 15 C0 10.05 0 5.1 0 0 Z " fill="#757575" transform="translate(585,418)"/>
<path d="M0 0 C0.99 0 1.98 0 3 0 C3 6.27 3 12.54 3 19 C2.01 19 1.02 19 0 19 C0 12.73 0 6.46 0 0 Z " fill="#8A8A8A" transform="translate(494,307)"/>
<path d="M0 0 C0 6.27 0 12.54 0 19 C-1.32 18.67 -2.64 18.34 -4 18 C-3.67 12.39 -3.34 6.78 -3 1 C-1 0 -1 0 0 0 Z " fill="#979797" transform="translate(642,307)"/>
<path d="M0 0 C12.54 0 25.08 0 38 0 C38 0.33 38 0.66 38 1 C25.79 1 13.58 1 1 1 C1.66 4.3 2.32 7.6 3 11 C2.01 11 1.02 11 0 11 C0 7.37 0 3.74 0 0 Z " fill="#00052F" transform="translate(675,637)"/>
<path d="M0 0 C2.60478883 -0.0809313 5.20706653 -0.14045434 7.8125 -0.1875 C8.55048828 -0.21263672 9.28847656 -0.23777344 10.04882812 -0.26367188 C12.20703125 -0.29296875 12.20703125 -0.29296875 16 0 C16.99 0.99 17.98 1.98 19 3 C13.06 3.33 7.12 3.66 1 4 C0.67 2.68 0.34 1.36 0 0 Z " fill="#090A1F" transform="translate(809,523)"/>
<path d="M0 0 C0.33 0 0.66 0 1 0 C1 1.65 1 3.3 1 5 C-3.18442931 6.06005542 -6.89309991 5.99068736 -11.1875 5.6875 C-13.03408203 5.56955078 -13.03408203 5.56955078 -14.91796875 5.44921875 C-18 5 -18 5 -20 3 C-13.4 3 -6.8 3 0 3 C0 2.01 0 1.02 0 0 Z " fill="#030229" transform="translate(848,482)"/>
<path d="M0 0 C0.33 0 0.66 0 1 0 C1 12.54 1 25.08 1 38 C-0.32 38 -1.64 38 -3 38 C-3 37.01 -3 36.02 -3 35 C-2.01 35 -1.02 35 0 35 C0 23.45 0 11.9 0 0 Z " fill="#8A8A8A" transform="translate(462,307)"/>
<path d="M0 0 C0.66 0 1.32 0 2 0 C2 6.6 2 13.2 2 20 C1.34 20 0.68 20 0 20 C-0.19522373 17.41703983 -0.38144403 14.83395921 -0.5625 12.25 C-0.61857422 11.52039063 -0.67464844 10.79078125 -0.73242188 10.0390625 C-0.97709908 6.45046349 -0.99666259 3.44972775 0 0 Z " fill="#090742" transform="translate(332,181)"/>
<path d="M0 0 C0.99 0 1.98 0 3 0 C3 4.95 3 9.9 3 15 C2.01 15 1.02 15 0 15 C0 10.05 0 5.1 0 0 Z " fill="#B2B2B2" transform="translate(638,418)"/>
<path d="M0 0 C5.94 0 11.88 0 18 0 C18 6.27 18 12.54 18 19 C17.67 19 17.34 19 17 19 C17 14.05 17 9.1 17 4 C16.01 4 15.02 4 14 4 C14 3.01 14 2.02 14 1 C9.38 1 4.76 1 0 1 C0 0.67 0 0.34 0 0 Z " fill="#5C5C5C" transform="translate(624,414)"/>
<path d="M0 0 C7.59 0.33 15.18 0.66 23 1 C23 1.33 23 1.66 23 2 C22.44014404 2.0093457 21.88028809 2.01869141 21.3034668 2.02832031 C18.76391854 2.08204507 16.22620889 2.16568187 13.6875 2.25 C12.80642578 2.26417969 11.92535156 2.27835938 11.01757812 2.29296875 C5.9371324 2.33032818 5.9371324 2.33032818 1.89453125 5.046875 C1.59933594 5.69140625 1.30414062 6.3359375 1 7 C0.67 6.67 0.34 6.34 0 6 C0 4.02 0 2.04 0 0 Z " fill="#111C4F" transform="translate(676,638)"/>
<path d="M0 0 C5.94 0 11.88 0 18 0 C18 6.27 18 12.54 18 19 C17.67 19 17.34 19 17 19 C17 14.05 17 9.1 17 4 C16.34 4 15.68 4 15 4 C15 3.01 15 2.02 15 1 C10.05 1 5.1 1 0 1 C0 0.67 0 0.34 0 0 Z " fill="#525252" transform="translate(479,414)"/>
<path d="M0 0 C0.33 0 0.66 0 1 0 C1.33 4.29 1.66 8.58 2 13 C2.33 8.71 2.66 4.42 3 0 C3.33 0 3.66 0 4 0 C4 5.61 4 11.22 4 17 C2.68 17.33 1.36 17.66 0 18 C0 12.06 0 6.12 0 0 Z " fill="#09091B" transform="translate(712,107)"/>
<path d="M0 0 C1.32 0 2.64 0 4 0 C4 9.9 4 19.8 4 30 C3.67 30 3.34 30 3 30 C3 21.09 3 12.18 3 3 C2.01 3 1.02 3 0 3 C0 2.01 0 1.02 0 0 Z " fill="#3D3D3D" transform="translate(387,342)"/>
<path d="M0 0 C2.33944736 0.28730055 4.6739143 0.61936779 7 1 C3.125 2 3.125 2 2 2 C1.67 7.28 1.34 12.56 1 18 C0.67 18 0.34 18 0 18 C-0.19384179 15.18780295 -0.38036603 12.37545804 -0.5625 9.5625 C-0.61857422 8.76005859 -0.67464844 7.95761719 -0.73242188 7.13085938 C-0.8616295 5.08937889 -0.9351273 3.04453631 -1 1 C-0.67 0.67 -0.34 0.34 0 0 Z " fill="#020317" transform="translate(712,619)"/>
<path d="M0 0 C0.33 0 0.66 0 1 0 C1.33 6.93 1.66 13.86 2 21 C1.01 21.33 0.02 21.66 -1 22 C-0.67 14.74 -0.34 7.48 0 0 Z " fill="#030012" transform="translate(408,105)"/>
<path d="M0 0 C0.33 0.99 0.66 1.98 1 3 C-0.32 2.67 -1.64 2.34 -3 2 C-2.01 1.34 -1.02 0.68 0 0 Z " fill="#0000FF" transform="translate(338,147)"/>
<path d="M0 0 C0.99 0.495 0.99 0.495 2 1 C2 1.99 2 2.98 2 4 C1.34 4 0.68 4 0 4 C0 2.68 0 1.36 0 0 Z " fill="#0000FF" transform="translate(395,641)"/>
<path d="M0 0 C0.33 0.99 0.66 1.98 1 3 C0.01 3 -0.98 3 -2 3 C-2 2.34 -2 1.68 -2 1 C-1.34 0.67 -0.68 0.34 0 0 Z " fill="#0000FF" transform="translate(319,185)"/>
<path d="M0 0 C0.66 0.66 1.32 1.32 2 2 C1.01 2 0.02 2 -1 2 C-0.67 1.34 -0.34 0.68 0 0 Z " fill="#0000FF" transform="translate(262,299)"/>
<path d="M0 0 C0.66 0 1.32 0 2 0 C2 0.66 2 1.32 2 2 C1.01 1.67 0.02 1.34 -1 1 C-0.67 0.67 -0.34 0.34 0 0 Z " fill="#0000FF" transform="translate(299,205)"/>
<path d="M0 0 C3 1 3 1 3 1 Z " fill="#0000FF" transform="translate(279,243)"/>
</svg>